<svg xmlns="http://www.w3.org/2000/svg" width="500" height="500" viewBox="0 0 500 500"><g transform="translate(238.25000305175783,371.0825027685494)translate(11.749996948242188,15.000000000000002)rotate(0)translate(-11.749996948242188,-15.000000000000002)" opacity="1"><path transform="translate(6,24.512)rotate(0)" d="" fill="#000000"/></g><g transform="translate(177.55813953488376,125.25)translate(79.66901993355485,79.66901993355485)rotate(0)translate(-79.66901993355485,-79.66901993355485) scale(0.9553900386568355,0.9553900386568355)" opacity="1"><defs class="defs"><linearGradient id="linearGradienta04c9e660b41a17bafc8dbaafac31184" class="linearGradient1" gradientTransform="translate(0.5,0.5) rotate(0) translate(-0.5,-0.5)" x1="50%" y1="0%" x2="50%" y2="100%"><stop id="stop1" offset="0%" class="linearGradientColor1" stop-color="#FFFFFF"/><stop id="stop2" offset="100%" class="linearGradientColor2" stop-color="#000000"/></linearGradient><linearGradient id="linearGradient6d118d31d9b0142e01403ce0f8edf363" class="linearGradient2" gradientTransform="translate(0.5,0.5) rotate(270) translate(-0.5,-0.5)" x1="50%" y1="0%" x2="50%" y2="100%"><stop id="stop1" offset="0%" class="linearGradientColor1" stop-color="#FFDD64"/><stop id="stop2" offset="100%" class="linearGradientColor2" stop-color="#FF8F00"/></linearGradient></defs><circle fill="url(#linearGradienta04c9e660b41a17bafc8dbaafac31184)" cx="83.389" cy="83.389" r="83.389" class="color c1"/><circle fill="url(#linearGradient6d118d31d9b0142e01403ce0f8edf363)" cx="83.389" cy="83.389" r="78.455" class="color c2"/></g><g transform="translate(202.5,131.25)translate(61.37500000000001,61.37500000000001)rotate(341.0970876893792)translate(-61.37500000000001,-61.37500000000001) scale(1.2474593495934967,1.2474593495934967)" opacity="1"><defs class="defs"/><path transform="translate(-0.8000000000000247,-0.7999999999999963)" d="M94.4,45.2c-2,0 -3.7,1.2 -4.4,3h-29.8v-4.8h11.2l11.3,-11.3c0.6,0.2 1.2,0.4 1.9,0.4c2.6,0 4.8,-2.2 4.8,-4.8c0,-2.6 -2.2,-4.8 -4.8,-4.8c-2.6,0 -4.8,2.2 -4.8,4.8c0,0.7 0.1,1.3 0.4,1.9l-10.3,10.2h-9.7v-9.7l10.3,-10.3c0.6,0.2 1.2,0.4 1.9,0.4c2.6,0 4.8,-2.2 4.8,-4.8c0,-2.6 -2.2,-4.8 -4.8,-4.8c-2.6,0 -4.8,2.2 -4.8,4.8c0,0.7 0.1,1.3 0.4,1.9l-11.4,11.3v11.2h-4.8v-29.8c1.8,-0.7 3,-2.4 3,-4.4c0,-2.6 -2.2,-4.8 -4.8,-4.8c-2.6,0 -4.8,2.2 -4.8,4.8c0,2 1.2,3.7 3,4.4v29.8h-4.8v-11.2l-11.3,-11.3c0.2,-0.6 0.4,-1.2 0.4,-1.9c0,-2.6 -2.2,-4.8 -4.8,-4.8c-2.6,0 -4.8,2.2 -4.8,4.8c0,2.6 2.2,4.8 4.8,4.8c0.7,0 1.3,-0.1 1.9,-0.4l10.3,10.3v9.7h-9.7l-10.4,-10.3c0.2,-0.6 0.4,-1.2 0.4,-1.9c0,-2.6 -2.2,-4.8 -4.8,-4.8c-2.6,0 -4.8,2.2 -4.8,4.8c0,2.6 2.2,4.8 4.8,4.8c0.7,0 1.3,-0.1 1.9,-0.4l11.3,11.3h11.2v4.8h-29.8c-0.7,-1.8 -2.4,-3 -4.4,-3c-2.6,0 -4.8,2.2 -4.8,4.8c0,2.6 2.2,4.8 4.8,4.8c2,0 3.7,-1.2 4.4,-3h29.8v4.8h-11.2l-11.3,11.4c-0.6,-0.2 -1.2,-0.4 -1.9,-0.4c-2.6,0 -4.8,2.2 -4.8,4.8c0,2.6 2.2,4.8 4.8,4.8c2.6,0 4.8,-2.2 4.8,-4.8c0,-0.7 -0.1,-1.3 -0.4,-1.9l10.3,-10.3h9.7v9.7l-10.3,10.4c-0.6,-0.2 -1.2,-0.4 -1.9,-0.4c-2.6,0 -4.8,2.2 -4.8,4.8c0,2.6 2.2,4.8 4.8,4.8c2.6,0 4.8,-2.2 4.8,-4.8c0,-0.7 -0.1,-1.3 -0.4,-1.9l11.3,-11.3v-11.2h4.8v29.8c-1.8,0.7 -3,2.4 -3,4.4c0,2.6 2.2,4.8 4.8,4.8c2.6,0 4.8,-2.2 4.8,-4.8c0,-2 -1.2,-3.7 -3,-4.4v-29.8h4.8v11.2l11.3,11.3c-0.2,0.6 -0.4,1.2 -0.4,1.9c0,2.6 2.2,4.8 4.8,4.8c2.6,0 4.8,-2.2 4.8,-4.8c0,-2.6 -2.2,-4.8 -4.8,-4.8c-0.7,0 -1.3,0.1 -1.9,0.4l-10.1,-10.3v-9.7h9.7l10.3,10.3c-0.2,0.6 -0.4,1.2 -0.4,1.9c0,2.6 2.2,4.8 4.8,4.8c2.6,0 4.8,-2.2 4.8,-4.8c0,-2.6 -2.2,-4.8 -4.8,-4.8c-0.7,0 -1.3,0.1 -1.9,0.4l-11.3,-11.4h-11.2v-4.8h29.8c0.7,1.8 2.4,3 4.4,3c2.6,0 4.8,-2.2 4.8,-4.8c0,-2.6 -2.2,-4.8 -4.8,-4.8zM84.6,26.5c0.7,0 1.2,0.5 1.2,1.2c0,0.7 -0.5,1.2 -1.2,1.2c-0.7,0 -1.2,-0.5 -1.2,-1.2c0,-0.7 0.5,-1.2 1.2,-1.2zM72.3,14.2c0.7,0 1.2,0.5 1.2,1.2c0,0.7 -0.5,1.2 -1.2,1.2c-0.7,0 -1.2,-0.5 -1.2,-1.2c0,-0.6 0.6,-1.2 1.2,-1.2zM26.5,15.4c0,-0.7 0.5,-1.2 1.2,-1.2c0.7,0 1.2,0.5 1.2,1.2c0,0.7 -0.5,1.2 -1.2,1.2c-0.7,0 -1.2,-0.5 -1.2,-1.2zM14.2,27.7c0,-0.7 0.5,-1.2 1.2,-1.2c0.7,0 1.2,0.5 1.2,1.2c0,0.7 -0.5,1.2 -1.2,1.2c-0.6,0 -1.2,-0.6 -1.2,-1.2zM15.4,73.5c-0.7,0 -1.2,-0.5 -1.2,-1.2c0,-0.7 0.5,-1.2 1.2,-1.2c0.7,0 1.2,0.5 1.2,1.2c0,0.7 -0.5,1.2 -1.2,1.2zM27.7,85.8c-0.7,0 -1.2,-0.5 -1.2,-1.2c0,-0.7 0.5,-1.2 1.2,-1.2c0.7,0 1.2,0.5 1.2,1.2c0,0.7 -0.6,1.2 -1.2,1.2zM73.5,84.6c0,0.7 -0.5,1.2 -1.2,1.2c-0.7,0 -1.2,-0.5 -1.2,-1.2c0,-0.7 0.5,-1.2 1.2,-1.2c0.7,0 1.2,0.5 1.2,1.2zM85.8,72.3c0,0.7 -0.5,1.2 -1.2,1.2c-0.7,0 -1.2,-0.5 -1.2,-1.2c0,-0.7 0.5,-1.2 1.2,-1.2c0.7,0 1.2,0.6 1.2,1.2zM50,4.4c0.7,0 1.2,0.5 1.2,1.2c0,0.7 -0.5,1.2 -1.2,1.2c-0.7,0 -1.2,-0.5 -1.2,-1.2c0,-0.7 0.5,-1.2 1.2,-1.2zM5.6,51.2c-0.7,0 -1.2,-0.5 -1.2,-1.2c0,-0.7 0.5,-1.2 1.2,-1.2c0.7,0 1.2,0.5 1.2,1.2c0,0.7 -0.5,1.2 -1.2,1.2zM50,95.6c-0.7,0 -1.2,-0.5 -1.2,-1.2c0,-0.7 0.5,-1.2 1.2,-1.2c0.7,0 1.2,0.5 1.2,1.2c0,0.7 -0.5,1.2 -1.2,1.2zM94.4,51.2c-0.7,0 -1.2,-0.5 -1.2,-1.2c0,-0.7 0.5,-1.2 1.2,-1.2c0.7,0 1.2,0.5 1.2,1.2c0,0.7 -0.5,1.2 -1.2,1.2z" fill="#000000" class="fill c1"/></g><g transform="translate(155.29401993355492,122.88705268154432)translate(83.14826781633192,82.19800189843079)rotate(343.28257305146303)translate(-83.14826781633192,-82.19800189843079) scale(0.9495171558009332,0.9495171558009332)" opacity="1"><defs class="defs"><linearGradient id="linearGradient947279233fd3412b414b0e535dfb5b02" class="linearGradient2" gradientTransform="translate(0.5,0.5) rotate(270) translate(-0.5,-0.5)" x1="50%" y1="0%" x2="50%" y2="100%"><stop id="stop1" offset="0%" class="linearGradientColor1" stop-color="#FFDD64"/><stop id="stop2" offset="100%" class="linearGradientColor2" stop-color="#FF8F00"/></linearGradient></defs><g>
    <path fill="#000000" d="M37.933,144.213c-0.555-3.022-1.076-12.734-1.076-12.734c-0.001-0.078,0.03-0.154,0.088-0.209l6.816-6.406&#10;&#9;&#9;c-0.248-2.001-3.029-24.656-3.029-35.18c0-10.66-8.631-10.926-8.998-10.933c-0.072-0.002-6.559-0.329-19.045-4.72&#10;&#9;&#9;C0.611,69.784,0.191,64.642,0.188,63.993c-0.252-0.729-2.043-7.502,13.596-17.567c-0.089-0.194-0.148-0.463-0.094-0.783&#10;&#9;&#9;c0.184-1.053,1.467-2.148,3.815-3.257c1.45-0.685,3.699-1.893,6.305-3.293c6.25-3.357,14.81-7.956,19.349-9.041&#10;&#9;&#9;c5.964-1.428,33.018,2.543,37.227,3.241l2.364-4.205l-2.396-3.595c-0.065-0.097-0.063-0.224,0.007-0.318l4.705-6.365&#10;&#9;&#9;c0.063-0.085,0.172-0.126,0.274-0.107l2.722,0.519c0.994-1.564,8.336-12.93,12.296-14.025l-0.124-2.118&#10;&#9;&#9;c-0.006-0.097,0.039-0.189,0.119-0.244c0.463-0.318,4.569-3.108,6.022-2.811c0.423,0.084,0.746,0.296,0.961,0.629&#10;&#9;&#9;c0.286,0.444,0.308,1.005,0.279,1.377c1.761-0.293,9.269-1.278,15.846,1.889c7.518,3.62,14.93,7.622,15.79,13.215&#10;&#9;&#9;c0.478,3.101,0.808,14.619-14.686,33.563c5.046,5.101,12.195,16.268,5.626,35.092c0.771,1.5,8.102,15.816,8.505,18.241&#10;&#9;&#9;c0.421,2.524-3.308,15.221-3.466,15.761c-0.023,0.078-0.081,0.144-0.157,0.176l-2.825,1.2c1.157,2.261,1.638,38.357,1.623,40.667&#10;&#9;&#9;c0,0.098-19.464,5.691-19.557,5.72C75.572,179.359,39.203,151.127,37.933,144.213z" class="color c1"/>
    <path fill="url(#linearGradient947279233fd3412b414b0e535dfb5b02)" d="M53.834,60.911c0.072-0.114,0.052-0.263-0.048-0.354c-0.102-0.09-0.252-0.095-0.356-0.012l-4.811,3.797&#10;&#9;&#9;v-5.102c0-0.091-0.044-0.176-0.119-0.228c-0.075-0.051-0.169-0.063-0.255-0.031c-3.247,1.218-5.631,10.276-5.95,11.545&#10;&#9;&#9;l-1.684,0.737c-0.001-1.677-0.745-3.878-1.528-6.197c-0.702-2.076-1.428-4.222-1.675-6.138c-0.503-3.898,2.733-6.785,3.058-7.062&#10;&#9;&#9;c2.376-1.066,7.508-0.169,14.093,2.465c3.657,1.463,10.763,2.851,21.123,4.125c0.32,0.04,0.563,0.069,0.715,0.089l0.302,0.038&#10;&#9;&#9;c1.571,0.188,2.813,0.337,5.528,5.853c0.964,1.958,1.932,3.85,2.784,5.518c1.567,3.064,3.049,5.957,3.001,6.412&#10;&#9;&#9;c-0.072,0.606-1.166,2.882-1.634,3.853c-0.105,0.219-0.188,0.39-0.234,0.491c-0.15,0.327-0.427,0.504-0.586,0.583&#10;&#9;&#9;c-0.224-0.151-0.73-0.435-1.789-0.819c-1.552-0.565-2.652-1.319-3.338-3.335c-0.748-2.196-2.296-3.942-2.361-4.016&#10;&#9;&#9;c-0.054-0.059-0.128-0.092-0.207-0.092c-0.002,0-0.004,0-0.006,0c-0.081,0.002-0.157,0.039-0.208,0.102l-1.661,2.033&#10;&#9;&#9;c-0.962-0.868-4.826-4.198-7.78-4.531c-2.704-0.303-6.787,3.303-8.748,5.037c-0.47,0.416-0.875,0.774-1.018,0.858&#10;&#9;&#9;c-0.628,0.368-1.925-0.138-3.23-1.263c-0.511-0.441-1.041-1.671-0.663-5.023l0.013-0.109c0.187-0.13,0.896-0.381,1.525-0.604&#10;&#9;&#9;c2.041-0.723,5.125-1.815,5.532-3.442c0.158-0.634,0.068-1.168-0.268-1.585c-0.578-0.717-1.727-0.853-2.242-0.876l-0.298-2.938&#10;&#9;&#9;c-0.011-0.109-0.085-0.201-0.189-0.234c-0.103-0.034-0.219-0.003-0.292,0.077L44.045,76.417L53.834,60.911z M175.138,106.313&#10;&#9;&#9;l-23.359,28.617l18.891-39.045l-24.057,39.545l7.969-44.609l-12.302,44.777l-5.872-48.948l2.872,49.614l-8.543-21.143l2.132,0.276&#10;&#9;&#9;c0.629-1.272,4.436-9.133,3.766-11.881c-0.748-3.054-6.386-15.899-6.442-16.029l-0.904-1.44c-0.042-0.067-0.053-0.15-0.03-0.227&#10;&#9;&#9;c0.048-0.159,4.696-15.877-0.271-23.16l-3.542,2.267l1.854-0.06c0.131-0.011,0.214,0.06,0.26,0.16&#10;&#9;&#9;c0.047,0.1,0.029,0.219-0.044,0.301l-2.975,3.325l6.298,7.288c0.063,0.073,0.085,0.172,0.056,0.264l-1.015,3.229&#10;&#9;&#9;c-0.028,0.089-0.101,0.158-0.19,0.184c-0.091,0.024-0.188,0.002-0.258-0.06l-6.199-5.501l4.966,9.128&#10;&#9;&#9;c0.046,0.084,0.044,0.187-0.003,0.271c-0.049,0.083-0.137,0.135-0.232,0.139l-5.242,0.154l6.104,3.292&#10;&#9;&#9;c0.119,0.064,0.174,0.205,0.13,0.333l-3.508,10.253l6.932,2.311c0.131,0.043,0.211,0.178,0.185,0.314&#10;&#9;&#9;c-0.025,0.136-0.156,0.227-0.287,0.224l-7.11-0.395l-7.634-30.324l3.32-0.369l-1.476-5.904l-36.161,1.107l5.165,8.118l25.83-2.952&#10;&#9;&#9;l7.732,33.819l-0.245-0.121l0.573,1.555l3.893,17.025l4.651,0.488l-1.188-4.715l6.819,21.455l-22.808-19.442l7.454-2.177&#10;&#9;&#9;c-0.269-1.643-1.845-11.167-2.714-13.401c-0.475-1.223-1.127-2.897-2.817-3.55c-1.695-0.654-4.202-0.167-7.454,1.448l-4.821,7.775&#10;&#9;&#9;l2.468-1.646c0.097-0.064,0.224-0.062,0.316,0.008c0.095,0.068,0.135,0.189,0.102,0.301l-1.146,3.898l-5.9-5.031l6.407-7.152&#10;&#9;&#9;l-3.634-3.893l-13.117-1.74c-0.132-0.018-0.233-0.127-0.239-0.26c-0.003-0.036-0.23-3.668-2.686-4.172&#10;&#9;&#9;c-2.597-0.529-11.741,2.249-11.833,2.277c-0.13,0.04-0.271-0.021-0.33-0.145s-0.02-0.271,0.093-0.35l9.994-6.841l-7.702-5.925&#10;&#9;&#9;l-3.208,0.401c-0.098,0.012-0.196-0.029-0.256-0.109c-0.06-0.08-0.072-0.185-0.032-0.276l0.888-2.029&#10;&#9;&#9;c-1.221-1.067-3.227-2.613-3.938-2.565c-0.68,0.042-2.205,1.564-3.113,2.627l7.179,8.262c0.091,0.104,0.091,0.26-0.001,0.364&#10;&#9;&#9;c-0.093,0.104-0.247,0.124-0.36,0.048c-6.007-3.993-12.701-7.757-13.518-7.137c-1.402,1.068-1.548,2.734-0.412,4.691&#10;&#9;&#9;c1.2,2.068,10.001,8.222,10.09,8.284c0.123,0.086,0.155,0.254,0.072,0.379c-0.083,0.126-0.25,0.162-0.378,0.082&#10;&#9;&#9;c-4.496-2.813-12-7.225-13.215-7.225c-0.014,0-0.024,0-0.037,0.001c-1.257,0.109-1.989,1.14-2.45,3.446&#10;&#9;&#9;c-0.188,0.937,2.938,3.293,6.322,5.473c1.254,0.625,2.759,1.515,4.563,2.754c0.123,0.084,0.157,0.25,0.078,0.375&#10;&#9;&#9;c-0.078,0.126-0.242,0.168-0.37,0.095c-0.742-0.418-2.616-1.491-4.619-2.778c-2.618-1.291-3.957-1.318-4.599-1.146&#10;&#9;&#9;c-0.497,0.134-0.628,0.394-0.634,0.405c-0.364,0.813-0.361,1.627,0.008,2.488c1.594,3.71,9.403,6.687,10.424,7.061L77.001,97&#10;&#9;&#9;c0.114-0.059,0.258-0.028,0.339,0.074c0.081,0.102,0.081,0.246-0.001,0.348l-7.007,8.623l1.977,1.369l12.015-10.376&#10;&#9;&#9;c0.103-0.088,0.25-0.091,0.354-0.007s0.134,0.23,0.07,0.348l-6.715,12.34l13.175,10.287l5.704-1.555l0.139-3.043l0.646-6.289&#10;&#9;&#9;c0.007-0.059,0.031-0.113,0.07-0.156l1.012-1.129l5.84,6.027l-0.463,1.574l5.025,3.135l23.599,24.359l-41.358-19.635l40.191,23.135&#10;&#9;&#9;l-46.448-2.578l39.615,5.246l-38.424,7.268l44.757-3.436l-32,16.168l31.833-12.834l-24.166,16.834l26.833-12.5l-9.713,9.07&#10;&#9;&#9;c21.396-7.896,38.652-24.32,47.672-45.146l-17.459,13.408L175.138,106.313z M92.663,36.615c-0.595-2.456-1.85-4.46-1.865-4.486&#10;&#9;&#9;c-0.073-0.116-0.051-0.268,0.054-0.357c0.104-0.089,0.257-0.089,0.361,0c0.167,0.145,0.331,0.29,0.489,0.432&#10;&#9;&#9;c-2.059-2.739-5.982-5.848-6.031-5.886c-0.092-0.072-0.125-0.192-0.094-0.298c-0.003-0.01-0.005-0.021-0.007-0.031&#10;&#9;&#9;c-0.133,0.155-0.257,0.25-0.351,0.25c-0.077,0-0.165,0-1.858-0.906l-0.479,0.888C88.798,30.344,91.487,34.282,92.663,36.615z&#10;&#9;&#9; M18.975,46.235c8.444-0.999,14.14,0.605,16.669,1.583c-3.432-3.18-6.717-5.768-6.752-5.795c-0.092-0.072-0.129-0.193-0.093-0.303&#10;&#9;&#9;c0.035-0.111,0.136-0.187,0.252-0.191c6.543-0.264,15.265,5.651,17.159,6.991c1.264-7.374-1.387-11.979-2.604-13.637&#10;&#9;&#9;c-1.035-1.41-1.947-1.985-2.307-2.028c-0.019-0.002-0.039-0.003-0.062-0.003c-1.763,0-16.648,6.461-21.351,9.283&#10;&#9;&#9;c-2.805,1.683-3.418,2.762-3.533,3.255c-0.064,0.273,0.015,0.399,0.018,0.404c0.076,0.119,0.06,0.287-0.05,0.376&#10;&#9;&#9;c-0.11,0.091-11.144,9.15-13.488,13.839c-2.3,4.6-1.287,5.739,5.438,10.068c5.986,3.854,18.778,2.658,21.122,2.4l-3.444-7.681&#10;&#9;&#9;c-0.056-0.126-0.011-0.275,0.106-0.348l4.01-2.517l-5.271-0.479c-0.108-0.01-0.201-0.082-0.236-0.184&#10;&#9;&#9;c-0.036-0.103-0.009-0.216,0.069-0.291c2.149-2.07,7.351-4.424,8.94-5.116l-2.91-2.021c-0.085-0.059-0.129-0.16-0.116-0.263&#10;&#9;&#9;c0.013-0.102,0.082-0.189,0.179-0.225l2.867-1.056l-2.819-1.262c-2.479,0.256-14.378,5.996-17.639,7.587&#10;&#9;&#9;c-0.138,0.12-0.267,0.238-0.387,0.354c-1.841,1.795-1.85,1.786-2.085,1.557c-0.22-0.213-0.247-0.241,1.319-1.942&#10;&#9;&#9;c0.023-0.024,0.051-0.045,0.081-0.061c0.074-0.037,0.344-0.169,0.765-0.375c3.272-2.824,10.938-6.515,13.962-7.917&#10;&#9;&#9;C16.292,50.737,7.153,55.83,7.058,55.884c-0.125,0.069-0.284,0.034-0.365-0.086c-0.08-0.119-0.056-0.281,0.056-0.371&#10;&#9;&#9;c5.595-4.491,15.081-6.595,17.763-7.119c-1.181-0.498-3.832-1.159-5.563-1.527c-0.132-0.028-0.224-0.148-0.217-0.283&#10;&#9;&#9;C18.737,46.362,18.84,46.251,18.975,46.235z M51.116,33.379c0.021-0.109,0.107-0.195,0.217-0.217&#10;&#9;&#9;c0.112-0.021,0.221,0.024,0.283,0.116c0.23,0.339,1.963,2.919,2.512,4.502l1.1-1.99c0.042-0.077,0.118-0.128,0.205-0.14&#10;&#9;&#9;c0.091-0.012,0.175,0.019,0.235,0.082c0.042,0.043,4.256,4.292,10.172,3.001l1.336-4.139c0.042-0.129,0.167-0.212,0.307-0.188&#10;&#9;&#9;l12.574,1.995c-0.351-0.661-1.225-1.861-3.043-2.141c-2.459-0.378-27.518-2.403-31.487-2.723c0.825,1.434,3.308,5.82,4.277,8.345&#10;&#9;&#9;L51.116,33.379z M85.189,21.422l0.518-0.482c1.227,1.085,7.807,6.604,12.628,4.584c4.871-2.041,9.71-5.507,5.497-20.859&#10;&#9;&#9;l1.415-0.849c0.755,1.456,4.356,8.99,1.604,15.464c-3.045,7.165-6.734,8.786-6.771,8.801c-0.105,0.044-0.173,0.149-0.17,0.264&#10;&#9;&#9;c0.003,0.114,0.076,0.215,0.185,0.252l3.137,1.107c0.134,0.046,0.286-0.016,0.344-0.148c0.078-0.17,7.677-17.103,9.77-21.016&#10;&#9;&#9;c1.196-2.233,2.581-2.938,3.364-2.649c0.386,0.143,0.562,0.52,0.458,0.983c-0.346,1.557-7.647,17.1-11.013,21.194&#10;&#9;&#9;c-2.092,2.544-12.307,15.683-7.97,24.559c0.062,0.124,0.202,0.184,0.334,0.142c0.131-0.042,0.211-0.175,0.188-0.311&#10;&#9;&#9;c-0.011-0.067-1.091-6.915,5.391-15.468c6.879-9.075,15.085-21.792,15.807-28.052c0.984-0.079,5.318-0.141,9.89,4.194&#10;&#9;&#9;c5.391,5.112,7.153,7.181,5.186,13.088c-2.054,6.163-17.792,30.574-22.669,31.55c-3.712,0.742-10.359,2.072-14.79-1.362&#10;&#9;&#9;c-0.679-0.777-1.489-1.702-2.36-2.693c-0.546-0.913-1.004-1.982-1.352-3.232c-0.024-0.075-2.35-7.463,4.797-14.27&#10;&#9;&#9;c0.172-0.11,1.02-0.705,1.271-1.805c0.202-0.885-0.035-1.846-0.704-2.857c-0.809-1.222-2.575-2.002-4.446-2.829&#10;&#9;&#9;c-2.715-1.198-5.79-2.556-6.823-5.55c-0.042-0.119-0.159-0.191-0.282-0.186c-0.126,0.009-0.229,0.103-0.252,0.226&#10;&#9;&#9;c-0.004,0.019-0.345,1.803-1.546,2.427c0.283-0.446,0.559-1.062,0.657-1.558C86.644,23.248,86.535,22.141,85.189,21.422z&#10;&#9;&#9; M122.093,27.833l-2.207-1.544l0.134,16.723l1.677,1.834L122.093,27.833z M129.462,33.937c-0.628-0.572-3.438-3.108-5.083-4.213&#10;&#9;&#9;v12.293C126.421,39.018,129.079,34.957,129.462,33.937z M118.628,21.799l12.318,10.176l0.896-1.527l-12.329-10.672L118.628,21.799z&#10;&#9;&#9; M109.677,36.893c2.42,0.511,6.471,3.249,7.797,4.178l0.397-16.126l-0.728-0.41L109.677,36.893z" class="color c2"/>
  </g></g><g transform="translate(112.16177963256816,221.41837247942198)translate(91.48796630859376,28.296875)rotate(0)translate(-91.48796630859376,-28.296875)" opacity="1"><filter id="shadow_4" x="-28.296875" y="-28.296875" width="182.9759326171875" height="56.59375"><feGaussianBlur stdDeviation="2.380952380952381"/><feOffset dx="0" dy="0"/></filter><path transform="translate(6,38.812)rotate(0)" d="M10.61 0.55L10.61 0.55L10.61 0.55Q5.03 0.55 2.89-1.87L2.89-1.87L2.89-1.87Q1.40-3.59 1.40-6.67L1.40-6.67L1.40-6.67Q1.40-8.00 1.68-9.52L1.68-9.52L3.28-18.49L3.28-18.49Q5.03-28.35 15.95-28.35L15.95-28.35L15.95-28.35Q20.48-28.35 22.82-26.42L22.82-26.42L22.82-26.42Q25.16-24.49 25.16-21.14L25.16-21.14L25.16-21.14Q25.16-19.58 24.71-18.04L24.71-18.04L24.71-18.04Q24.26-16.50 23.83-15.76L23.83-15.76L23.40-14.98L16.50-14.98L16.50-14.98Q17.78-16.46 17.78-19.19L17.78-19.19L17.78-19.19Q17.78-20.63 17.04-21.47L17.04-21.47L17.04-21.47Q16.30-22.31 14.86-22.31L14.86-22.31L14.86-22.31Q10.92-22.31 10.18-17.94L10.18-17.94L8.81-10.06L8.81-10.06Q8.62-9.05 8.62-8.07L8.62-8.07L8.62-8.07Q8.62-5.50 11.70-5.50L11.70-5.50L11.70-5.50Q15.40-5.50 16.15-9.67L16.15-9.67L23.17-9.67L22.97-8.54L22.97-8.54Q21.41 0.55 10.61 0.55ZM30.54-28.08L41.85-28.08L41.85-28.08Q46.29-28.08 48.16-26.13L48.16-26.13L48.16-26.13Q49.57-24.65 49.57-22.39L49.57-22.39L49.57-22.39Q49.57-21.61 49.41-20.75L49.41-20.75L48.87-17.71L48.87-17.71Q48.40-15.17 47.25-13.61L47.25-13.61L47.25-13.61Q46.10-12.05 44.69-11.39L44.69-11.39L48.24 0L40.37 0L37.09-10.49L34.67-10.49L33.07 0L25.58 0L30.54-28.08ZM39.39-22.00L39.39-22.00L36.47-22.00L35.45-15.21L38.18-15.21L38.18-15.21Q40.25-15.21 41.14-16.20L41.14-16.20L41.14-16.20Q42.04-17.20 42.04-18.84L42.04-18.84L42.04-18.84Q42.04-22.00 39.39-22.00ZM63.45-18.21L64.35-18.21L70.94-28.08L77.96-28.08L65.95-10.80L64.04 0L56.98 0L58.89-10.80L52.96-28.08L60.41-28.08L63.45-18.21ZM88.69-8.54L88.69-8.54L84.04-8.54L82.52 0L75.50 0L80.46-28.08L92.35-28.08L92.35-28.08Q96.76-28.08 98.63-26.05L98.63-26.05L98.63-26.05Q100.00-24.49 100.00-22.07L100.00-22.07L100.00-22.07Q100.00-21.25 99.84-20.36L99.84-20.36L99.06-15.95L99.06-15.95Q98.47-12.71 95.63-10.63L95.63-10.63L95.63-10.63Q92.78-8.54 88.69-8.54ZM89.89-22.00L89.89-22.00L86.38-22.00L85.10-14.63L88.57-14.63L88.57-14.63Q91.77-14.63 92.27-17.47L92.27-17.47L92.55-19.07L92.55-19.07Q92.62-19.42 92.62-20.01L92.62-20.01L92.62-20.01Q92.62-20.59 92.04-21.29L92.04-21.29L92.04-21.29Q91.45-22.00 89.89-22.00ZM128.89-28.08L127.80-22.00L118.21-22.00L114.35 0L107.29 0L111.15-22.00L101.52-22.00L102.61-28.08L128.89-28.08ZM131.70-28.08L138.72-28.08L133.81 0L126.75 0L131.70-28.08ZM148.79 0.55L148.79 0.55L148.79 0.55Q143.21 0.55 141.06-1.87L141.06-1.87L141.06-1.87Q139.58-3.59 139.58-6.67L139.58-6.67L139.58-6.67Q139.58-8.00 139.85-9.52L139.85-9.52L141.45-18.49L141.45-18.49Q143.21-28.35 154.13-28.35L154.13-28.35L154.13-28.35Q158.65-28.35 160.99-26.42L160.99-26.42L160.99-26.42Q163.33-24.49 163.33-21.14L163.33-21.14L163.33-21.14Q163.33-19.58 162.88-18.04L162.88-18.04L162.88-18.04Q162.44-16.50 162.01-15.76L162.01-15.76L161.58-14.98L154.67-14.98L154.67-14.98Q155.96-16.46 155.96-19.19L155.96-19.19L155.96-19.19Q155.96-20.63 155.22-21.47L155.22-21.47L155.22-21.47Q154.48-22.31 153.04-22.31L153.04-22.31L153.04-22.31Q149.10-22.31 148.36-17.94L148.36-17.94L146.99-10.06L146.99-10.06Q146.80-9.05 146.80-8.07L146.80-8.07L146.80-8.07Q146.80-5.50 149.88-5.50L149.88-5.50L149.88-5.50Q153.58-5.50 154.32-9.67L154.32-9.67L161.34-9.67L161.15-8.54L161.15-8.54Q159.59 0.55 148.79 0.55Z" fill="#000000" stroke="#000000" stroke-width="7" stroke-linejoin="round" stroke-miterlimit="2" opacity="1" style="filter:url(#shadow_4)"/><path transform="translate(6,38.812)rotate(0)" d="M10.61 0.55L10.61 0.55L10.61 0.55Q5.03 0.55 2.89-1.87L2.89-1.87L2.89-1.87Q1.40-3.59 1.40-6.67L1.40-6.67L1.40-6.67Q1.40-8.00 1.68-9.52L1.68-9.52L3.28-18.49L3.28-18.49Q5.03-28.35 15.95-28.35L15.95-28.35L15.95-28.35Q20.48-28.35 22.82-26.42L22.82-26.42L22.82-26.42Q25.16-24.49 25.16-21.14L25.16-21.14L25.16-21.14Q25.16-19.58 24.71-18.04L24.71-18.04L24.71-18.04Q24.26-16.50 23.83-15.76L23.83-15.76L23.40-14.98L16.50-14.98L16.50-14.98Q17.78-16.46 17.78-19.19L17.78-19.19L17.78-19.19Q17.78-20.63 17.04-21.47L17.04-21.47L17.04-21.47Q16.30-22.31 14.86-22.31L14.86-22.31L14.86-22.31Q10.92-22.31 10.18-17.94L10.18-17.94L8.81-10.06L8.81-10.06Q8.62-9.05 8.62-8.07L8.62-8.07L8.62-8.07Q8.62-5.50 11.70-5.50L11.70-5.50L11.70-5.50Q15.40-5.50 16.15-9.67L16.15-9.67L23.17-9.67L22.97-8.54L22.97-8.54Q21.41 0.55 10.61 0.55ZM30.54-28.08L41.85-28.08L41.85-28.08Q46.29-28.08 48.16-26.13L48.16-26.13L48.16-26.13Q49.57-24.65 49.57-22.39L49.57-22.39L49.57-22.39Q49.57-21.61 49.41-20.75L49.41-20.75L48.87-17.71L48.87-17.71Q48.40-15.17 47.25-13.61L47.25-13.61L47.25-13.61Q46.10-12.05 44.69-11.39L44.69-11.39L48.24 0L40.37 0L37.09-10.49L34.67-10.49L33.07 0L25.58 0L30.54-28.08ZM39.39-22.00L39.39-22.00L36.47-22.00L35.45-15.21L38.18-15.21L38.18-15.21Q40.25-15.21 41.14-16.20L41.14-16.20L41.14-16.20Q42.04-17.20 42.04-18.84L42.04-18.84L42.04-18.84Q42.04-22.00 39.39-22.00ZM63.45-18.21L64.35-18.21L70.94-28.08L77.96-28.08L65.95-10.80L64.04 0L56.98 0L58.89-10.80L52.96-28.08L60.41-28.08L63.45-18.21ZM88.69-8.54L88.69-8.54L84.04-8.54L82.52 0L75.50 0L80.46-28.08L92.35-28.08L92.35-28.08Q96.76-28.08 98.63-26.05L98.63-26.05L98.63-26.05Q100.00-24.49 100.00-22.07L100.00-22.07L100.00-22.07Q100.00-21.25 99.84-20.36L99.84-20.36L99.06-15.95L99.06-15.95Q98.47-12.71 95.63-10.63L95.63-10.63L95.63-10.63Q92.78-8.54 88.69-8.54ZM89.89-22.00L89.89-22.00L86.38-22.00L85.10-14.63L88.57-14.63L88.57-14.63Q91.77-14.63 92.27-17.47L92.27-17.47L92.55-19.07L92.55-19.07Q92.62-19.42 92.62-20.01L92.62-20.01L92.62-20.01Q92.62-20.59 92.04-21.29L92.04-21.29L92.04-21.29Q91.45-22.00 89.89-22.00ZM128.89-28.08L127.80-22.00L118.21-22.00L114.35 0L107.29 0L111.15-22.00L101.52-22.00L102.61-28.08L128.89-28.08ZM131.70-28.08L138.72-28.08L133.81 0L126.75 0L131.70-28.08ZM148.79 0.55L148.79 0.55L148.79 0.55Q143.21 0.55 141.06-1.87L141.06-1.87L141.06-1.87Q139.58-3.59 139.58-6.67L139.58-6.67L139.58-6.67Q139.58-8.00 139.85-9.52L139.85-9.52L141.45-18.49L141.45-18.49Q143.21-28.35 154.13-28.35L154.13-28.35L154.13-28.35Q158.65-28.35 160.99-26.42L160.99-26.42L160.99-26.42Q163.33-24.49 163.33-21.14L163.33-21.14L163.33-21.14Q163.33-19.58 162.88-18.04L162.88-18.04L162.88-18.04Q162.44-16.50 162.01-15.76L162.01-15.76L161.58-14.98L154.67-14.98L154.67-14.98Q155.96-16.46 155.96-19.19L155.96-19.19L155.96-19.19Q155.96-20.63 155.22-21.47L155.22-21.47L155.22-21.47Q154.48-22.31 153.04-22.31L153.04-22.31L153.04-22.31Q149.10-22.31 148.36-17.94L148.36-17.94L146.99-10.06L146.99-10.06Q146.80-9.05 146.80-8.07L146.80-8.07L146.80-8.07Q146.80-5.50 149.88-5.50L149.88-5.50L149.88-5.50Q153.58-5.50 154.32-9.67L154.32-9.67L161.34-9.67L161.15-8.54L161.15-8.54Q159.59 0.55 148.79 0.55Z" fill="none" stroke="#000000" stroke-width="7" stroke-linejoin="round" stroke-miterlimit="2"/><path transform="translate(6,38.812)rotate(0)" d="M10.61 0.55L10.61 0.55L10.61 0.55Q5.03 0.55 2.89-1.87L2.89-1.87L2.89-1.87Q1.40-3.59 1.40-6.67L1.40-6.67L1.40-6.67Q1.40-8.00 1.68-9.52L1.68-9.52L3.28-18.49L3.28-18.49Q5.03-28.35 15.95-28.35L15.95-28.35L15.95-28.35Q20.48-28.35 22.82-26.42L22.82-26.42L22.82-26.42Q25.16-24.49 25.16-21.14L25.16-21.14L25.16-21.14Q25.16-19.58 24.71-18.04L24.71-18.04L24.71-18.04Q24.26-16.50 23.83-15.76L23.83-15.76L23.40-14.98L16.50-14.98L16.50-14.98Q17.78-16.46 17.78-19.19L17.78-19.19L17.78-19.19Q17.78-20.63 17.04-21.47L17.04-21.47L17.04-21.47Q16.30-22.31 14.86-22.31L14.86-22.31L14.86-22.31Q10.92-22.31 10.18-17.94L10.18-17.94L8.81-10.06L8.81-10.06Q8.62-9.05 8.62-8.07L8.62-8.07L8.62-8.07Q8.62-5.50 11.70-5.50L11.70-5.50L11.70-5.50Q15.40-5.50 16.15-9.67L16.15-9.67L23.17-9.67L22.97-8.54L22.97-8.54Q21.41 0.55 10.61 0.55ZM30.54-28.08L41.85-28.08L41.85-28.08Q46.29-28.08 48.16-26.13L48.16-26.13L48.16-26.13Q49.57-24.65 49.57-22.39L49.57-22.39L49.57-22.39Q49.57-21.61 49.41-20.75L49.41-20.75L48.87-17.71L48.87-17.71Q48.40-15.17 47.25-13.61L47.25-13.61L47.25-13.61Q46.10-12.05 44.69-11.39L44.69-11.39L48.24 0L40.37 0L37.09-10.49L34.67-10.49L33.07 0L25.58 0L30.54-28.08ZM39.39-22.00L39.39-22.00L36.47-22.00L35.45-15.21L38.18-15.21L38.18-15.21Q40.25-15.21 41.14-16.20L41.14-16.20L41.14-16.20Q42.04-17.20 42.04-18.84L42.04-18.84L42.04-18.84Q42.04-22.00 39.39-22.00ZM63.45-18.21L64.35-18.21L70.94-28.08L77.96-28.08L65.95-10.80L64.04 0L56.98 0L58.89-10.80L52.96-28.08L60.41-28.08L63.45-18.21ZM88.69-8.54L88.69-8.54L84.04-8.54L82.52 0L75.50 0L80.46-28.08L92.35-28.08L92.35-28.08Q96.76-28.08 98.63-26.05L98.63-26.05L98.63-26.05Q100.00-24.49 100.00-22.07L100.00-22.07L100.00-22.07Q100.00-21.25 99.84-20.36L99.84-20.36L99.06-15.95L99.06-15.95Q98.47-12.71 95.63-10.63L95.63-10.63L95.63-10.63Q92.78-8.54 88.69-8.54ZM89.89-22.00L89.89-22.00L86.38-22.00L85.10-14.63L88.57-14.63L88.57-14.63Q91.77-14.63 92.27-17.47L92.27-17.47L92.55-19.07L92.55-19.07Q92.62-19.42 92.62-20.01L92.62-20.01L92.62-20.01Q92.62-20.59 92.04-21.29L92.04-21.29L92.04-21.29Q91.45-22.00 89.89-22.00ZM128.89-28.08L127.80-22.00L118.21-22.00L114.35 0L107.29 0L111.15-22.00L101.52-22.00L102.61-28.08L128.89-28.08ZM131.70-28.08L138.72-28.08L133.81 0L126.75 0L131.70-28.08ZM148.79 0.55L148.79 0.55L148.79 0.55Q143.21 0.55 141.06-1.87L141.06-1.87L141.06-1.87Q139.58-3.59 139.58-6.67L139.58-6.67L139.58-6.67Q139.58-8.00 139.85-9.52L139.85-9.52L141.45-18.49L141.45-18.49Q143.21-28.35 154.13-28.35L154.13-28.35L154.13-28.35Q158.65-28.35 160.99-26.42L160.99-26.42L160.99-26.42Q163.33-24.49 163.33-21.14L163.33-21.14L163.33-21.14Q163.33-19.58 162.88-18.04L162.88-18.04L162.88-18.04Q162.44-16.50 162.01-15.76L162.01-15.76L161.58-14.98L154.67-14.98L154.67-14.98Q155.96-16.46 155.96-19.19L155.96-19.19L155.96-19.19Q155.96-20.63 155.22-21.47L155.22-21.47L155.22-21.47Q154.48-22.31 153.04-22.31L153.04-22.31L153.04-22.31Q149.10-22.31 148.36-17.94L148.36-17.94L146.99-10.06L146.99-10.06Q146.80-9.05 146.80-8.07L146.80-8.07L146.80-8.07Q146.80-5.50 149.88-5.50L149.88-5.50L149.88-5.50Q153.58-5.50 154.32-9.67L154.32-9.67L161.34-9.67L161.15-8.54L161.15-8.54Q159.59 0.55 148.79 0.55Z" fill="#ffab17"/></g><g transform="translate(124.16801757812502,254.31893687707634)translate(89.831982421875,34.59375)rotate(0)translate(-89.831982421875,-34.59375)" opacity="1"><filter id="shadow_5" x="-34.59375" y="-34.59375" width="179.66396484375" height="69.1875"><feGaussianBlur stdDeviation="2.857142857142857"/><feOffset dx="0" dy="0"/></filter><path transform="translate(6,48.384)rotate(0)" d="M7.01-34.56L16.03-34.56L21.17-18L32.21-34.56L41.28-34.56L35.18 0L26.50 0L29.95-19.49L22.56-7.87L16.27-7.87L13.01-19.49L9.55 0L0.91 0L7.01-34.56ZM47.62-34.56L56.26-34.56L50.21 0L41.52 0L47.62-34.56ZM80.59-34.56L89.23-34.56L83.18 0L74.50 0L68.45-18.91L65.18 0L56.50 0L62.59-34.56L71.52-34.56L77.47-16.90L80.59-34.56ZM95.57-34.56L104.21-34.56L98.16 0L89.47 0L95.57-34.56ZM128.54-34.56L137.18-34.56L131.14 0L122.45 0L116.40-18.91L113.14 0L104.45 0L110.54-34.56L119.47-34.56L125.42-16.90L128.54-34.56ZM149.47 0.67L149.47 0.67L149.47 0.67Q142.66 0.67 140.06-2.50L140.06-2.50L140.06-2.50Q138.29-4.70 138.29-8.54L138.29-8.54L138.29-8.54Q138.29-10.32 138.67-12.43L138.67-12.43L140.35-22.03L140.35-22.03Q142.61-34.90 156.10-34.90L156.10-34.90L156.10-34.90Q161.66-34.90 164.54-32.52L164.54-32.52L164.54-32.52Q167.42-30.14 167.42-26.02L167.42-26.02L167.42-26.02Q167.42-24.34 166.97-22.61L166.97-22.61L166.97-22.61Q166.51-20.88 166.08-20.02L166.08-20.02L165.60-19.15L157.10-19.15L157.10-19.15Q158.35-20.88 158.35-23.14L158.35-23.14L158.35-23.14Q158.35-27.46 154.75-27.46L154.75-27.46L154.75-27.46Q149.90-27.46 148.94-21.84L148.94-21.84L147.31-12.62L147.31-12.62Q147.07-11.33 147.07-10.08L147.07-10.08L147.07-10.08Q147.07-6.77 150.98-6.77L150.98-6.77L150.98-6.77Q154.90-6.77 156.00-10.70L156.00-10.70L152.06-10.70L153.02-16.03L165.74-16.03L164.98-11.90L164.74-10.51L164.74-10.51Q162.72 0.67 149.47 0.67Z" fill="#000000" stroke="#000000" stroke-width="9" stroke-linejoin="round" stroke-miterlimit="2" opacity="1" style="filter:url(#shadow_5)"/><path transform="translate(6,48.384)rotate(0)" d="M7.01-34.56L16.03-34.56L21.17-18L32.21-34.56L41.28-34.56L35.18 0L26.50 0L29.95-19.49L22.56-7.87L16.27-7.87L13.01-19.49L9.55 0L0.91 0L7.01-34.56ZM47.62-34.56L56.26-34.56L50.21 0L41.52 0L47.62-34.56ZM80.59-34.56L89.23-34.56L83.18 0L74.50 0L68.45-18.91L65.18 0L56.50 0L62.59-34.56L71.52-34.56L77.47-16.90L80.59-34.56ZM95.57-34.56L104.21-34.56L98.16 0L89.47 0L95.57-34.56ZM128.54-34.56L137.18-34.56L131.14 0L122.45 0L116.40-18.91L113.14 0L104.45 0L110.54-34.56L119.47-34.56L125.42-16.90L128.54-34.56ZM149.47 0.67L149.47 0.67L149.47 0.67Q142.66 0.67 140.06-2.50L140.06-2.50L140.06-2.50Q138.29-4.70 138.29-8.54L138.29-8.54L138.29-8.54Q138.29-10.32 138.67-12.43L138.67-12.43L140.35-22.03L140.35-22.03Q142.61-34.90 156.10-34.90L156.10-34.90L156.10-34.90Q161.66-34.90 164.54-32.52L164.54-32.52L164.54-32.52Q167.42-30.14 167.42-26.02L167.42-26.02L167.42-26.02Q167.42-24.34 166.97-22.61L166.97-22.61L166.97-22.61Q166.51-20.88 166.08-20.02L166.08-20.02L165.60-19.15L157.10-19.15L157.10-19.15Q158.35-20.88 158.35-23.14L158.35-23.14L158.35-23.14Q158.35-27.46 154.75-27.46L154.75-27.46L154.75-27.46Q149.90-27.46 148.94-21.84L148.94-21.84L147.31-12.62L147.31-12.62Q147.07-11.33 147.07-10.08L147.07-10.08L147.07-10.08Q147.07-6.77 150.98-6.77L150.98-6.77L150.98-6.77Q154.90-6.77 156.00-10.70L156.00-10.70L152.06-10.70L153.02-16.03L165.74-16.03L164.98-11.90L164.74-10.51L164.74-10.51Q162.72 0.67 149.47 0.67Z" fill="none" stroke="#000000" stroke-width="9" stroke-linejoin="round" stroke-miterlimit="2"/><path transform="translate(6,48.384)rotate(0)" d="M7.01-34.56L16.03-34.56L21.17-18L32.21-34.56L41.28-34.56L35.18 0L26.50 0L29.95-19.49L22.56-7.87L16.27-7.87L13.01-19.49L9.55 0L0.91 0L7.01-34.56ZM47.62-34.56L56.26-34.56L50.21 0L41.52 0L47.62-34.56ZM80.59-34.56L89.23-34.56L83.18 0L74.50 0L68.45-18.91L65.18 0L56.50 0L62.59-34.56L71.52-34.56L77.47-16.90L80.59-34.56ZM95.57-34.56L104.21-34.56L98.16 0L89.47 0L95.57-34.56ZM128.54-34.56L137.18-34.56L131.14 0L122.45 0L116.40-18.91L113.14 0L104.45 0L110.54-34.56L119.47-34.56L125.42-16.90L128.54-34.56ZM149.47 0.67L149.47 0.67L149.47 0.67Q142.66 0.67 140.06-2.50L140.06-2.50L140.06-2.50Q138.29-4.70 138.29-8.54L138.29-8.54L138.29-8.54Q138.29-10.32 138.67-12.43L138.67-12.43L140.35-22.03L140.35-22.03Q142.61-34.90 156.10-34.90L156.10-34.90L156.10-34.90Q161.66-34.90 164.54-32.52L164.54-32.52L164.54-32.52Q167.42-30.14 167.42-26.02L167.42-26.02L167.42-26.02Q167.42-24.34 166.97-22.61L166.97-22.61L166.97-22.61Q166.51-20.88 166.08-20.02L166.08-20.02L165.60-19.15L157.10-19.15L157.10-19.15Q158.35-20.88 158.35-23.14L158.35-23.14L158.35-23.14Q158.35-27.46 154.75-27.46L154.75-27.46L154.75-27.46Q149.90-27.46 148.94-21.84L148.94-21.84L147.31-12.62L147.31-12.62Q147.07-11.33 147.07-10.08L147.07-10.08L147.07-10.08Q147.07-6.77 150.98-6.77L150.98-6.77L150.98-6.77Q154.90-6.77 156.00-10.70L156.00-10.70L152.06-10.70L153.02-16.03L165.74-16.03L164.98-11.90L164.74-10.51L164.74-10.51Q162.72 0.67 149.47 0.67Z" fill="#ffab17"/></g><g transform="translate(297.87394861318165,233.6001199040778)translate(8.87605138681742,10.249999999998952)rotate(0)translate(-8.87605138681742,-10.249999999998952) scale(0.37730292823878503,0.37730292823878503)" opacity="1"><defs class="defs"/><path transform="translate(-26.476,-22.833)" d="M72.67,35.922l-22.671,-13.089l-22.728,13.122l-0.795,0.463v1.171v25.995l20.998,12.119l1.563,0.901l0.963,0.562l0.847,-0.496l1.684,-0.968l20.995,-12.119v-26.064v-1.102zM49.036,74.519l-20.751,-11.983v-23.903l20.751,11.981zM49.941,49.048l-20.861,-12.045l20.919,-12.078l20.862,12.045zM41.285,50.216c-1.204,-2.166 -3.501,-3.185 -5.139,-2.279c-1.638,0.906 -1.992,3.397 -0.791,5.563c0.314,0.561 0.705,1.042 1.136,1.44l-1.411,7.639l4.92,3.165l-0.879,-9.641c0.481,0.009 0.951,-0.093 1.374,-0.323c1.631,-0.904 1.989,-3.397 0.79,-5.564zM57.955,32.286l-2.022,-1.057l-1.47,0.879c-2.502,-0.932 -4.89,-0.532 -6.176,0.237c-1.946,1.164 -1.244,2.638 -0.188,3.894c0.948,1.127 1.144,1.876 0.301,2.38c-0.704,0.421 -1.971,0.39 -2.903,-0.097c-1.166,-0.609 -1.646,-1.954 -1.684,-2.031c-0.019,-0.062 -0.082,-0.126 -0.176,-0.175c-0.135,-0.071 -0.333,-0.11 -0.552,-0.07l-1.668,0.271c-0.425,0.069 -0.424,0.169 -0.404,0.343c0.043,0.314 0.314,1.265 1.729,2.26l-1.337,0.799l2.021,1.057l1.356,-0.811c2.286,0.798 4.829,0.606 6.287,-0.265c2.128,-1.273 1.071,-2.898 -0.028,-4.19c-0.91,-1.087 -1.046,-1.748 -0.273,-2.21c0.532,-0.318 1.711,-0.405 2.74,0.132c0.985,0.517 1.528,1.723 1.583,1.845c0.024,0.054 0.074,0.098 0.14,0.132c0.169,0.088 0.444,0.111 0.685,0.078l1.622,-0.204c0.295,-0.03 0.52,-0.226 0.44,-0.379c-0.093,-0.269 -0.461,-1.108 -1.523,-1.919l1.5,-0.899" fill="#000000" class="fill c1"/></g></svg>